<svg xmlns="http://www.w3.org/2000/svg" data-name="Layer 1" viewBox="0 0 48 48"><path d="M48.021,15.973v0a.5.5,0,0,0-.056-.217c-.009-.018-.022-.032-.033-.05a.507.507,0,0,0-.11-.121c-.011-.008-.015-.021-.026-.028L41.98,11.687V5.681a.505.505,0,0,0-.5-.506h-9.29L24.519.079a.506.506,0,0,0-.547-.008l-8.194,5.1H6.562a.505.505,0,0,0-.506.506v5.55l-5.8,3.615A.487.487,0,0,0,.1,15c-.01.015-.013.032-.022.049a.494.494,0,0,0-.05.181c0,.014-.011.026-.011.04V47.5c0,.017.008.031.009.047a.456.456,0,0,0,.02.1.413.413,0,0,0,.04.1.356.356,0,0,0,.017.041c.007.011.019.015.027.025a.487.487,0,0,0,.126.113.382.382,0,0,0,.049.033.5.5,0,0,0,.218.054h47a.5.5,0,0,0,.232-.058.518.518,0,0,0,.253-.3.312.312,0,0,0,.017-.175v-31.5h0ZM24.23,1.1l6.129,4.074H17.69ZM6.562,17.261a.506.506,0,0,0,.5-.506V6.187h33.9V17.414a.506.506,0,1,0,1.011,0V12.9L46.6,15.976,24.4,30.874l-.052-.036C14.2,23.927,4.05,17.053,1.448,15.292l4.608-2.87v4.333A.506.506,0,0,0,6.562,17.261ZM1.026,16.227c5.467,3.7,14.122,9.57,22.466,15.254L1.026,46.552ZM2.182,46.994l22.21-14.9c9.576,6.524,18.573,12.689,21.651,14.9ZM25.3,31.487,47.009,16.922V46.485C45.115,45.016,39.812,41.374,25.3,31.487Z"/><path d="M32.445 11.316H33.9a.506.506 0 1 0 0-1.011H32.445a.506.506 0 1 0 0 1.011zM14.133 11.316H29.558a.506.506 0 0 0 0-1.011H14.133a.506.506 0 1 0 0 1.011zM33.9 15.042H22.471a.506.506 0 0 0 0 1.012H33.9a.506.506 0 1 0 0-1.012zM14.133 16.054h5.254a.506.506 0 0 0 0-1.012H14.133a.506.506 0 0 0 0 1.012zM14.133 20.79H33.9a.506.506 0 0 0 0-1.012H14.133a.506.506 0 1 0 0 1.012z"/></svg>